<svg height="512" viewBox="0 0 64 64" width="512" xmlns="http://www.w3.org/2000/svg"><g id="Layer_12" data-name="Layer 12"><rect fill="#a0a8b2" height="40" rx="4" width="50" x="2" y="10"/><path d="m6 14h42v32h-42z" fill="#c7e2fb"/><path d="m6 41.6a29.54 29.54 0 0 0 9 1.4c14.91 0 27-11 27-24.5a22.3 22.3 0 0 0 -.46-4.5h-35.54z" fill="#ebf7fe"/><path d="m12 20h30v20h-30z" fill="#4472b0"/><path d="m12 26h30v14h-30z" fill="#fff"/><path d="m62 9-3.31-.74a13.56 13.56 0 0 1 -8.69-6.26 13.56 13.56 0 0 1 -8.69 6.26l-3.31.74a28 28 0 0 0 11.2 22.4l.8.6.8-.6a28 28 0 0 0 11.2-22.4z" fill="#78b75b"/><path d="m58 8.07a13.56 13.56 0 0 1 -8-6.07 13.56 13.56 0 0 1 -8.69 6.26l-3.31.74a28 28 0 0 0 6.26 17.64c8.01-2.89 13.74-10.1 13.74-18.57z" fill="#96cc7f"/><path d="m20 50h14v6h-14z" fill="#c1c8d1"/><path d="m18 56h18a2 2 0 0 1 2 2v4a0 0 0 0 1 0 0h-22a0 0 0 0 1 0 0v-4a2 2 0 0 1 2-2z" fill="#a0a8b2"/><path d="m45 15h10v8h-10z" fill="#f7d881"/><rect fill="#4472b0" height="4" rx="2" width="22" x="16" y="31"/><rect fill="#698ec0" height="4" rx="2" width="10" x="24" y="31"/><path d="m63 9a1 1 0 0 0 -.78-1l-3.31-.73a12.63 12.63 0 0 1 -8-5.8 1 1 0 0 0 -1.72 0 12.63 12.63 0 0 1 -8 5.8l-3.41.73a1 1 0 0 0 -.78 1h-31a5 5 0 0 0 -5 5v32a5 5 0 0 0 5 5h13v4h-1a3 3 0 0 0 -3 3v4a1 1 0 0 0 1 1h22a1 1 0 0 0 1-1v-4a3 3 0 0 0 -3-3h-1v-4h13a5 5 0 0 0 5-5v-15.1a29.18 29.18 0 0 0 10-21.9zm-21.48.24a14.63 14.63 0 0 0 8.48-5.45 14.63 14.63 0 0 0 8.48 5.45l2.52.56a27.15 27.15 0 0 1 -10.8 20.8l-.2.15-.2-.15a27.15 27.15 0 0 1 -10.8-20.8zm-2.72 9.76h-26.8a1 1 0 0 0 -1 1v20a1 1 0 0 0 1 1h30a1 1 0 0 0 1-1v-13.37a29.34 29.34 0 0 0 4 4.27v14.1h-40v-30h30.65a29 29 0 0 0 1.15 4zm-25.8 8h28v12h-28zm28-2h-28v-4h26.63a28.85 28.85 0 0 0 1.37 2.65zm-4 33v3h-20v-3a1 1 0 0 1 1-1h18a1 1 0 0 1 1 1zm-4-3h-12v-4h12zm15-6h-42a3 3 0 0 1 -3-3v-32a3 3 0 0 1 3-3h31.08c0 .67.12 1.34.21 2h-31.29a1 1 0 0 0 -1 1v32a1 1 0 0 0 1 1h42a1 1 0 0 0 1-1v-13.5l.4.3a1 1 0 0 0 1.2 0l.4-.3v13.5a3 3 0 0 1 -3 3z"/><path d="m56 23v-8a1 1 0 0 0 -1-1h-1v-2a4 4 0 0 0 -8 0v2h-1a1 1 0 0 0 -1 1v8a1 1 0 0 0 1 1h10a1 1 0 0 0 1-1zm-8-11a2 2 0 0 1 4 0v2h-4zm6 10h-8v-6h8z"/><path d="m49 18h2v2h-2z"/><path d="m36 36a3 3 0 0 0 0-6h-18a3 3 0 0 0 0 6zm-19-3a1 1 0 0 1 1-1h5.18a2.87 2.87 0 0 0 0 2h-5.18a1 1 0 0 1 -1-1zm9 1a1 1 0 0 1 0-2h6a1 1 0 0 1 0 2zm10 0h-1.18a2.87 2.87 0 0 0 0-2h1.18a1 1 0 0 1 0 2z"/></g></svg>